# xmcd
#
# Track frame offsets: 
#        150
#        30926
#        54341
#        81572
#        114405
#        148871
#        176828
#        196265
#        225356
#
# Disc length: 3174 seconds
#
# Revision: 7
# Processed by: cddbd v1.5.2PL0 Copyright (c) Steve Scherf et al.
# Submitted via: ExactAudioCopy v0.95b3
#
DISCID=700c6409
DTITLE=Donald Fagen - Morph The Cat (Vinyl Rip)
DYEAR=2006
DGENRE=Pop/Funk
TTITLE0=Morph The Cat
TTITLE1=H Gang
TTITLE2=What I Do
TTITLE3=Brite Nitegown
TTITLE4=The Great Pagoda of Funn
TTITLE5=Security Joan
TTITLE6=The Night Belongs To Mona
TTITLE7=Mary Shut The Garden Door
TTITLE8=MorphThe Cat (Reprise)
EXTD=YEAR: 2006
EXTT0=
EXTT1=
EXTT2=
EXTT3=
EXTT4=
EXTT5=
EXTT6=
EXTT7=
EXTT8=
PLAYORDER=
